<svg width="110" height="110" viewBox="0 0 110 110" fill="none" xmlns="http://www.w3.org/2000/svg">
<circle cx="55" cy="55" r="30" fill="#4199EF"/>
<path d="M60.5 0.275V11.385C82.225 14.08 99 32.56 99 55C99 72.655 88.44 88 73.04 95.04L60.5 82.5V110H88L81.29 103.29C98.505 93.885 110 75.68 110 55C110 26.51 88.275 3.025 60.5 0.275ZM49.5 0C38.775 1.1 28.6 5.28 20.24 12.155L28.05 19.965C34.293 15.1524 41.6891 12.0612 49.5 11V0ZM12.1 20.24C5.28 28.6 1.1 38.775 0 49.5H11C12.045 41.69 15.125 34.265 19.965 28.05L12.1 20.24ZM0 60.5C1.1 71.225 5.335 81.4 12.21 89.76L20.02 81.95C15.1911 75.7108 12.0811 68.3152 11 60.5H0ZM28.105 90.035L20.24 97.845C28.5966 104.668 38.7687 108.894 49.5 110V99C41.6992 97.9629 34.3149 94.8687 28.105 90.035Z" fill="#082F7A"/>
<path d="M33.4972 67.8026V62.831L42.9929 54.9759C43.6226 54.4538 44.1612 53.965 44.6087 53.5092C45.0644 53.0452 45.4124 52.5688 45.6527 52.0799C45.9013 51.591 46.0256 51.0483 46.0256 50.4517C46.0256 49.7971 45.8847 49.2378 45.603 48.7738C45.3295 48.3098 44.9484 47.9535 44.4595 47.7049C43.9706 47.448 43.4072 47.3196 42.7692 47.3196C42.1312 47.3196 41.5677 47.448 41.0788 47.7049C40.5982 47.9618 40.2254 48.3388 39.9602 48.8359C39.6951 49.3331 39.5625 49.938 39.5625 50.6506H33C33 48.8608 33.4019 47.3196 34.2056 46.027C35.0094 44.7344 36.1445 43.7401 37.6112 43.044C39.0778 42.348 40.7971 42 42.7692 42C44.8075 42 46.5724 42.3273 48.0639 42.9819C49.5637 43.6282 50.7196 44.5397 51.5316 45.7163C52.3519 46.8929 52.7621 48.2725 52.7621 49.8551C52.7621 50.8329 52.5591 51.8065 52.1531 52.7759C51.747 53.7371 51.0179 54.8018 49.9656 55.9702C48.9132 57.1385 47.4176 58.5305 45.4787 60.1463L43.0923 62.1349V62.2841H53.0355V67.8026H33.4972Z" fill="#FFDC24"/>
<path d="M55.3287 63.8253V58.456L65.5701 42.348H70.4423V49.5071H67.6582L62.1397 58.2571V58.456H77.2534V63.8253H55.3287ZM67.7079 67.8026V62.1847L67.8571 59.848V42.348H74.3201V67.8026H67.7079Z" fill="#FFDC24"/>
</svg>
