<svg width="124" height="133" viewBox="0 0 124 133" fill="none" xmlns="http://www.w3.org/2000/svg">
<rect x="26" y="133" width="111" height="72" rx="6" transform="rotate(-90 26 133)" fill="#082F7A"/>
<rect x="32" y="126" width="97" height="60" rx="4" transform="rotate(-90 32 126)" fill="#4199EF"/>
<path d="M117.155 77.2864V105.858C117.155 106.805 116.779 107.713 116.109 108.383C115.439 109.053 114.531 109.429 113.584 109.429H83.7847L76.6239 115.704C76.6153 115.713 76.6056 115.721 76.5949 115.728C75.9536 116.273 75.1395 116.572 74.2981 116.572C73.7741 116.571 73.2567 116.455 72.7824 116.233C72.1655 115.948 71.6435 115.492 71.2789 114.919C70.9143 114.346 70.7226 113.68 70.7266 113.001V77.2864C70.7266 76.3392 71.1029 75.4308 71.7727 74.761C72.4424 74.0912 73.3509 73.715 74.2981 73.715H113.584C114.531 73.715 115.439 74.0912 116.109 74.761C116.779 75.4308 117.155 76.3392 117.155 77.2864Z" fill="#FFDC24"/>
<g clip-path="url(#clip0_3311_16618)">
<path d="M93.6182 80.5029C93.7415 80.2913 93.9181 80.1157 94.1305 79.9937C94.3428 79.8717 94.5834 79.8075 94.8283 79.8075C95.0732 79.8075 95.3138 79.8717 95.5261 79.9937C95.7385 80.1157 95.9151 80.2913 96.0384 80.5029L99.17 85.8788L105.252 87.1964C105.491 87.2484 105.712 87.3622 105.894 87.5265C106.076 87.6907 106.211 87.8996 106.287 88.1325C106.362 88.3653 106.375 88.6139 106.325 88.8535C106.275 89.0931 106.162 89.3152 105.999 89.4978L101.854 94.1376L102.481 100.328C102.506 100.572 102.466 100.818 102.366 101.041C102.266 101.265 102.109 101.459 101.911 101.603C101.713 101.747 101.48 101.836 101.236 101.862C100.993 101.888 100.747 101.85 100.522 101.751L94.8283 99.2413L89.1342 101.751C88.91 101.85 88.6638 101.888 88.4202 101.862C88.1766 101.836 87.944 101.747 87.7458 101.603C87.5476 101.459 87.3906 101.265 87.2906 101.041C87.1905 100.818 87.1509 100.572 87.1756 100.328L87.8031 94.1376L83.6574 89.499C83.4941 89.3164 83.3815 89.0941 83.331 88.8544C83.2804 88.6147 83.2936 88.3659 83.3692 88.1329C83.4448 87.8998 83.5803 87.6907 83.762 87.5264C83.9437 87.3621 84.1653 87.2483 84.4048 87.1964L90.4866 85.8788L93.6182 80.5029Z" fill="#F3F3F3"/>
</g>
<path d="M5.48878 14.6429V43.9286C5.48878 44.8995 5.87446 45.8306 6.56097 46.5171C7.24749 47.2036 8.17861 47.5893 9.14949 47.5893H39.6936L47.0333 54.0207C47.0421 54.0303 47.0521 54.0388 47.063 54.0459C47.7204 54.6043 48.5548 54.9109 49.4173 54.9108C49.9544 54.9098 50.4847 54.7911 50.9709 54.563C51.6032 54.2715 52.1383 53.8041 52.512 53.2166C52.8857 52.6291 53.0822 51.9463 53.0781 51.25V14.6429C53.0781 13.672 52.6924 12.7409 52.0059 12.0544C51.3193 11.3679 50.3882 10.9822 49.4173 10.9822H9.14949C8.17861 10.9822 7.24749 11.3679 6.56097 12.0544C5.87446 12.7409 5.48878 13.672 5.48878 14.6429Z" fill="#FF8D24"/>
<g clip-path="url(#clip1_3311_16618)">
<path d="M28.9504 17.9397C29.0768 17.7228 29.2578 17.5429 29.4754 17.4178C29.6931 17.2927 29.9397 17.2269 30.1907 17.2269C30.4417 17.2269 30.6884 17.2927 30.906 17.4178C31.1236 17.5429 31.3047 17.7228 31.431 17.9397L34.641 23.45L40.8748 24.8006C41.12 24.8539 41.347 24.9705 41.5331 25.1389C41.7192 25.3072 41.8579 25.5214 41.9354 25.76C42.0129 25.9987 42.0265 26.2535 41.9748 26.4991C41.9231 26.7446 41.808 26.9724 41.6409 27.1595L37.3916 31.9153L38.0347 38.2605C38.0601 38.5104 38.0194 38.7625 37.9169 38.9918C37.8143 39.221 37.6534 39.4194 37.4503 39.567C37.2471 39.7146 37.0088 39.8063 36.759 39.833C36.5093 39.8597 36.257 39.8204 36.0272 39.7191L30.1907 37.1465L24.3542 39.7191C24.1245 39.8204 23.8721 39.8597 23.6224 39.833C23.3727 39.8063 23.1343 39.7146 22.9312 39.567C22.728 39.4194 22.5671 39.221 22.4645 38.9918C22.362 38.7625 22.3214 38.5104 22.3467 38.2605L22.9899 31.9153L18.7406 27.1607C18.5732 26.9735 18.4578 26.7457 18.4059 26.5C18.3541 26.2543 18.3676 25.9993 18.4451 25.7604C18.5226 25.5216 18.6615 25.3072 18.8477 25.1388C19.034 24.9704 19.2612 24.8538 19.5066 24.8006L25.7404 23.45L28.9504 17.9397Z" fill="#F3F3F3"/>
</g>
<path d="M109.717 84.9047C113.005 84.9047 115.981 83.5722 118.135 81.4179C120.29 79.2635 121.622 76.2874 121.622 73C121.622 69.7126 120.29 66.7364 118.135 64.582C115.981 62.4277 113.005 61.0952 109.717 61.0952C106.43 61.0952 103.454 62.4277 101.299 64.582C99.145 66.7364 97.8125 69.7126 97.8125 73C97.8125 76.2874 99.145 79.2635 101.299 81.4179C103.454 83.5722 106.43 84.9047 109.717 84.9047Z" fill="#31BE00"/>
<path d="M104.957 73L108.528 76.5714L115.671 69.4286" stroke="white" stroke-width="2" stroke-linecap="round" stroke-linejoin="round"/>
<path d="M23.2876 87.1905C26.575 87.1905 29.5511 85.858 31.7055 83.7037C33.8598 81.5493 35.1923 78.5731 35.1923 75.2857C35.1923 71.9984 33.8598 69.0222 31.7055 66.8678C29.5511 64.7135 26.575 63.381 23.2876 63.381C20.0002 63.381 17.024 64.7135 14.8696 66.8678C12.7153 69.0222 11.3828 71.9984 11.3828 75.2857C11.3828 78.5731 12.7153 81.5493 14.8696 83.7037C17.024 85.858 20.0002 87.1905 23.2876 87.1905Z" fill="#31BE00"/>
<path d="M18.5273 75.2858L22.0988 78.8572L29.2416 71.7144" stroke="white" stroke-width="2" stroke-linecap="round" stroke-linejoin="round"/>
<path d="M90.2876 36.1905C93.575 36.1905 96.5511 34.858 98.7055 32.7037C100.86 30.5493 102.192 27.5731 102.192 24.2857C102.192 20.9984 100.86 18.0222 98.7055 15.8678C96.5511 13.7135 93.575 12.381 90.2876 12.381C87.0002 12.381 84.024 13.7135 81.8696 15.8678C79.7153 18.0222 78.3828 20.9984 78.3828 24.2857C78.3828 27.5731 79.7153 30.5493 81.8696 32.7037C84.024 34.858 87.0002 36.1905 90.2876 36.1905Z" fill="#31BE00"/>
<path d="M85.5273 24.2858L89.0988 27.8572L96.2416 20.7144" stroke="white" stroke-width="2" stroke-linecap="round" stroke-linejoin="round"/>
<circle cx="59.7176" cy="25.8572" r="1.42857" fill="#D9D9D9"/>
<defs>
<clipPath id="clip0_3311_16618">
<rect width="26.8908" height="26.8908" fill="white" transform="translate(81.0586 78.687)"/>
</clipPath>
<clipPath id="clip1_3311_16618">
<rect width="27.563" height="27.563" fill="white" transform="translate(16.0781 16.0785)"/>
</clipPath>
</defs>
</svg>
