<svg width="108" height="110" viewBox="0 0 108 110" fill="none" xmlns="http://www.w3.org/2000/svg">
<circle cx="11.3793" cy="11.3793" r="10.3793" stroke="#469DF1" stroke-width="2" stroke-dasharray="4 4"/>
<circle cx="11.3739" cy="11.3792" r="5.05747" fill="#3B76E8"/>
<circle cx="51.8129" cy="11.3793" r="10.3793" stroke="#469DF1" stroke-width="2" stroke-dasharray="4 4"/>
<circle cx="51.8075" cy="11.3792" r="5.05747" fill="#3B76E8"/>
<circle cx="51.8129" cy="98.6206" r="10.3793" stroke="#469DF1" stroke-width="2" stroke-dasharray="4 4"/>
<circle cx="52.0575" cy="99.0575" r="5.05747" fill="#3B76E8"/>
<circle cx="11.3793" cy="53.1033" r="10.3793" stroke="#469DF1" stroke-width="2" stroke-dasharray="4 4"/>
<circle cx="11.3739" cy="53.1032" r="5.05747" fill="#3B76E8"/>
<circle cx="96.1137" cy="11.3793" r="10.3793" stroke="#469DF1" stroke-width="2" stroke-dasharray="4 4"/>
<circle cx="96.1083" cy="11.3792" r="5.05747" fill="#3B76E8"/>
<circle cx="96.1137" cy="53.1033" r="10.3793" stroke="#469DF1" stroke-width="2" stroke-dasharray="4 4"/>
<circle cx="96.1083" cy="53.1032" r="5.05747" fill="#3B76E8"/>
<circle cx="96.1137" cy="98.6206" r="10.3793" stroke="#469DF1" stroke-width="2" stroke-dasharray="4 4"/>
<circle cx="96.1083" cy="98.6206" r="5.05747" fill="#3B76E8"/>
<circle cx="11.3793" cy="98.6206" r="10.3793" stroke="#469DF1" stroke-width="2" stroke-dasharray="4 4"/>
<circle cx="11.3739" cy="98.6206" r="5.05747" fill="#3B76E8"/>
<rect x="34.1602" y="83.6588" width="54.5785" height="35.4023" rx="6" transform="rotate(-90 34.1602 83.6588)" fill="#082F7A"/>
<rect x="37.125" y="80.4281" width="47.6947" height="29.5019" rx="4" transform="rotate(-90 37.125 80.4281)" fill="#4199EF"/>
<path d="M81.2705 80.2876C81.4614 80.4784 81.6128 80.7049 81.716 80.9543C81.8193 81.2036 81.8725 81.4708 81.8725 81.7406C81.8725 82.0105 81.8193 82.2777 81.716 82.527C81.6128 82.7763 81.4614 83.0028 81.2705 83.1936L80.6696 83.7946C80.4788 83.9854 80.2523 84.1368 80.0029 84.2401C79.7536 84.3434 79.4864 84.3965 79.2166 84.3965C78.9467 84.3965 78.6795 84.3434 78.4302 84.2401C78.1809 84.1368 77.9544 83.9854 77.7636 83.7946L70.6688 76.7011L67.8591 83.1654C67.7017 83.532 67.4399 83.8443 67.1063 84.0632C66.7727 84.2822 66.3821 84.3982 65.983 84.3968H65.8829C65.4669 84.3794 65.0662 84.2346 64.7353 83.9819C64.4043 83.7293 64.159 83.381 64.0325 82.9843L57.3204 62.4281C57.2026 62.0684 57.1869 61.6831 57.2748 61.315C57.3628 60.9469 57.551 60.6103 57.8186 60.3427C58.0863 60.0751 58.4228 59.8868 58.7909 59.7989C59.159 59.7109 59.5443 59.7267 59.904 59.8444L80.4602 66.5565C80.8531 66.6879 81.1971 66.9351 81.447 67.2654C81.697 67.5958 81.8412 67.9941 81.8607 68.4079C81.8803 68.8217 81.7744 69.2317 81.5567 69.5843C81.3391 69.9368 81.02 70.2153 80.6413 70.3832L74.177 73.1929L81.2705 80.2876Z" fill="#FFDC24"/>
</svg>
