<svg width="26" height="26" viewBox="0 0 26 26" fill="none" xmlns="http://www.w3.org/2000/svg">
<path d="M16.4394 9.99993L11.8535 14.5857C11.6582 14.7809 11.3417 14.7809 11.1464 14.5857L9.5605 12.9999C9.36525 12.8047 9.04872 12.8047 8.85347 12.9999C8.65822 13.1952 8.65822 13.5117 8.85344 13.707L11.1464 16.0001C11.3417 16.1954 11.6583 16.1954 11.8535 16.0001L17.1464 10.707C17.3417 10.5117 17.3417 10.1952 17.1464 9.99996C16.9512 9.80471 16.6347 9.80471 16.4394 9.99993Z" fill="#31BE00"/>
<path d="M13 3.5C7.76172 3.5 3.5 7.76172 3.5 13C3.5 18.2383 7.76172 22.5 13 22.5C18.2383 22.5 22.5 18.2383 22.5 13C22.5 7.76172 18.2383 3.5 13 3.5ZM17.8535 11.4141L12.5606 16.7072C11.9749 17.2929 11.0252 17.2929 10.4394 16.7072L8.14645 14.4141C7.56073 13.8283 7.56076 12.8787 8.14649 12.293C8.73221 11.7072 9.68185 11.7072 10.2676 12.2929L11.5 13.5251L15.7324 9.29294C16.3181 8.70721 17.2678 8.70724 17.8535 9.29296C18.4392 9.87869 18.4392 10.8283 17.8535 11.4141Z" fill="url(#paint0_linear_3511_10233)"/>
<path d="M13 0.5C6.10742 0.5 0.5 6.10742 0.5 13C0.5 19.8926 6.10742 25.5 13 25.5C19.8926 25.5 25.5 19.8926 25.5 13C25.5 6.10742 19.8926 0.5 13 0.5ZM13 23.5C7.21021 23.5 2.5 18.7898 2.5 13C2.5 7.21021 7.21021 2.5 13 2.5C18.7898 2.5 23.5 7.21021 23.5 13C23.5 18.7898 18.7898 23.5 13 23.5Z" fill="#31BE00"/>
<defs>
<linearGradient id="paint0_linear_3511_10233" x1="13" y1="3.5" x2="13" y2="22.5" gradientUnits="userSpaceOnUse">
<stop stop-color="#52E31F"/>
<stop offset="1" stop-color="#36C903"/>
</linearGradient>
</defs>
</svg>
